<?xml version="1.0" encoding="iso-8859-1"?>
<!-- Uploaded to: SVG Repo, www.svgrepo.com, Generator: SVG Repo Mixer Tools -->
<svg version="1.1" id="Capa_1" xmlns="http://www.w3.org/2000/svg" xmlns:xlink="http://www.w3.org/1999/xlink" 
	 height="30px" width="30px" viewBox="0 0 460 460" xml:space="preserve">
<g>
	<path style="fill:#96B5A5;" d="M223.274,146.333h-41.82V267.19h70.002V430h-70.002v30h100V237.188
		C281.454,196.892,257.615,162.167,223.274,146.333z"/>
	<path style="fill:#B7D6CA;" d="M111.456,430V267.19h69.998V146.333h-41.82c-34.341,15.834-58.18,50.559-58.18,90.855V460h100v-30
		H111.456z"/>
	<path style="fill:#96B5A5;" d="M254.29,76.333H139.634v40c0.002-0.003,83.642-0.003,83.642-0.003
		c0,0.003,31.015,0.003,31.015,0.003c-1.363-6.454-2.085-13.144-2.085-20.003C252.206,89.473,252.928,82.785,254.29,76.333z"/>
	<rect x="348.546" y="96.33" style="fill:#96B5A5;" width="30" height="96.34"/>
	<rect x="348.546" style="fill:#B7D6CA;" width="30" height="96.33"/>
	<path style="fill:#B7D6CA;" d="M252.206,96.33c0,6.859,0.722,13.549,2.085,20.003c9.208,43.608,47.905,76.337,94.255,76.337V96.33
		H252.206z"/>
	<path style="fill:#C7FFE9;" d="M348.546,96.33V0c-46.352,0-85.049,32.73-94.256,76.333c-1.362,6.452-2.084,13.14-2.084,19.997
		H348.546z"/>
	<rect x="181.456" y="267.19" style="fill:#C7FFE9;" width="70" height="162.81"/>
	<rect x="111.456" y="267.19" style="fill:#FFFFFF;" width="70" height="162.81"/>
	<rect x="181.456" y="116.33" style="fill:#B7D6CA;" width="41.82" height="30"/>
	<rect x="181.456" y="46.33" style="fill:#B7D6CA;" width="41.82" height="30"/>
	<rect x="139.636" y="116.33" style="fill:#C7FFE9;" width="41.82" height="30"/>
	<rect x="139.636" y="46.33" style="fill:#C7FFE9;" width="41.82" height="30"/>
</g>
</svg>