<svg id="visual" viewBox="0 0 900 600" width="900" height="600" xmlns="http://www.w3.org/2000/svg" xmlns:xlink="http://www.w3.org/1999/xlink" version="1.1"><path d="M0 121L13.7 118C27.3 115 54.7 109 82 100C109.3 91 136.7 79 163.8 71C191 63 218 59 245.2 56C272.3 53 299.7 51 327 65C354.3 79 381.7 109 409 122C436.3 135 463.7 131 491 118C518.3 105 545.7 83 573 75C600.3 67 627.7 73 654.8 75C682 77 709 75 736.2 90C763.3 105 790.7 137 818 138C845.3 139 872.7 109 886.3 94L900 79L900 0L886.3 0C872.7 0 845.3 0 818 0C790.7 0 763.3 0 736.2 0C709 0 682 0 654.8 0C627.7 0 600.3 0 573 0C545.7 0 518.3 0 491 0C463.7 0 436.3 0 409 0C381.7 0 354.3 0 327 0C299.7 0 272.3 0 245.2 0C218 0 191 0 163.8 0C136.7 0 109.3 0 82 0C54.7 0 27.3 0 13.7 0L0 0Z" fill="#6198ff"></path><path d="M0 325L13.7 319C27.3 313 54.7 301 82 275C109.3 249 136.7 209 163.8 191C191 173 218 177 245.2 188C272.3 199 299.7 217 327 238C354.3 259 381.7 283 409 288C436.3 293 463.7 279 491 281C518.3 283 545.7 301 573 289C600.3 277 627.7 235 654.8 224C682 213 709 233 736.2 268C763.3 303 790.7 353 818 363C845.3 373 872.7 343 886.3 328L900 313L900 77L886.3 92C872.7 107 845.3 137 818 136C790.7 135 763.3 103 736.2 88C709 73 682 75 654.8 73C627.7 71 600.3 65 573 73C545.7 81 518.3 103 491 116C463.7 129 436.3 133 409 120C381.7 107 354.3 77 327 63C299.7 49 272.3 51 245.2 54C218 57 191 61 163.8 69C136.7 77 109.3 89 82 98C54.7 107 27.3 113 13.7 116L0 119Z" fill="#3c80ff"></path><path d="M0 421L13.7 414C27.3 407 54.7 393 82 368C109.3 343 136.7 307 163.8 287C191 267 218 263 245.2 274C272.3 285 299.7 311 327 333C354.3 355 381.7 373 409 368C436.3 363 463.7 335 491 341C518.3 347 545.7 387 573 382C600.3 377 627.7 327 654.8 307C682 287 709 297 736.2 328C763.3 359 790.7 411 818 434C845.3 457 872.7 451 886.3 448L900 445L900 311L886.3 326C872.7 341 845.3 371 818 361C790.7 351 763.3 301 736.2 266C709 231 682 211 654.8 222C627.7 233 600.3 275 573 287C545.7 299 518.3 281 491 279C463.7 277 436.3 291 409 286C381.7 281 354.3 257 327 236C299.7 215 272.3 197 245.2 186C218 175 191 171 163.8 189C136.7 207 109.3 247 82 273C54.7 299 27.3 311 13.7 317L0 323Z" fill="#0066ff"></path><path d="M0 517L13.7 504C27.3 491 54.7 465 82 437C109.3 409 136.7 379 163.8 357C191 335 218 321 245.2 334C272.3 347 299.7 387 327 416C354.3 445 381.7 463 409 452C436.3 441 463.7 401 491 407C518.3 413 545.7 465 573 465C600.3 465 627.7 413 654.8 387C682 361 709 361 736.2 386C763.3 411 790.7 461 818 481C845.3 501 872.7 491 886.3 486L900 481L900 443L886.3 446C872.7 449 845.3 455 818 432C790.7 409 763.3 357 736.2 326C709 295 682 285 654.8 305C627.7 325 600.3 375 573 380C545.7 385 518.3 345 491 339C463.7 333 436.3 361 409 366C381.7 371 354.3 353 327 331C299.7 309 272.3 283 245.2 272C218 261 191 265 163.8 285C136.7 305 109.3 341 82 366C54.7 391 27.3 405 13.7 412L0 419Z" fill="#0059dd"></path><path d="M0 601L13.7 601C27.3 601 54.7 601 82 601C109.3 601 136.7 601 163.8 601C191 601 218 601 245.2 601C272.3 601 299.7 601 327 601C354.3 601 381.7 601 409 601C436.3 601 463.7 601 491 601C518.3 601 545.7 601 573 601C600.3 601 627.7 601 654.8 601C682 601 709 601 736.2 601C763.3 601 790.7 601 818 601C845.3 601 872.7 601 886.3 601L900 601L900 479L886.3 484C872.7 489 845.3 499 818 479C790.7 459 763.3 409 736.2 384C709 359 682 359 654.8 385C627.7 411 600.3 463 573 463C545.7 463 518.3 411 491 405C463.7 399 436.3 439 409 450C381.7 461 354.3 443 327 414C299.7 385 272.3 345 245.2 332C218 319 191 333 163.8 355C136.7 377 109.3 407 82 435C54.7 463 27.3 489 13.7 502L0 515Z" fill="#004cbb"></path></svg>