<svg id="visual" viewBox="0 0 900 600" width="900" height="600" xmlns="http://www.w3.org/2000/svg" xmlns:xlink="http://www.w3.org/1999/xlink" version="1.1"><rect x="0" y="0" width="900" height="600" fill="#002233"></rect><path d="M0 512L21.5 499.8C43 487.7 86 463.3 128.8 459C171.7 454.7 214.3 470.3 257.2 470.2C300 470 343 454 385.8 451.3C428.7 448.7 471.3 459.3 514.2 463.7C557 468 600 466 642.8 465.2C685.7 464.3 728.3 464.7 771.2 473.8C814 483 857 501 878.5 510L900 519L900 601L878.5 601C857 601 814 601 771.2 601C728.3 601 685.7 601 642.8 601C600 601 557 601 514.2 601C471.3 601 428.7 601 385.8 601C343 601 300 601 257.2 601C214.3 601 171.7 601 128.8 601C86 601 43 601 21.5 601L0 601Z" fill="#0066FF" stroke-linecap="round" stroke-linejoin="miter"></path></svg>